# xmcd
#
# Track frame offsets: 
#        150
#        14330
#        32557
#        46693
#        64575
#        84441
#        104321
#        132321
#        149970
#        168639
#        188414
#        206499
#        220030
#
# Disc length: 3153 seconds
#
# Revision: 0
# Processed by: cddbd v1.5.2PL0 Copyright (c) Steve Scherf et al.
# Submitted via: ExactAudioCopyFreeDBPlugin 1.0
#
DISCID=b10c4f0d
DTITLE=Bill Perry - Greycourt Lightning
DYEAR=1998
DGENRE=Blues
TTITLE0=Gettin' Down
TTITLE1=In Pain
TTITLE2=About Me (Why I Got the Blues)
TTITLE3=The Other Night
TTITLE4=Your Smile
TTITLE5=Blue Suede Shoes
TTITLE6=Sneaking Around
TTITLE7=Trust in You
TTITLE8=Greycourt Lightning
TTITLE9=Come on in My Kitchen
TTITLE10=My Life
TTITLE11=Evil Woman
TTITLE12=Roll with Me
EXTD=
EXTT0=
EXTT1=
EXTT2=
EXTT3=
EXTT4=
EXTT5=
EXTT6=
EXTT7=
EXTT8=
EXTT9=
EXTT10=
EXTT11=
EXTT12=
PLAYORDER=
